<svg width="25" height="25" viewBox="0 0 25 25" fill="none" xmlns="http://www.w3.org/2000/svg">
<path d="M21.868 3.03839H18.656V1.72639C18.6734 1.50632 18.6451 1.28501 18.5729 1.0764C18.5007 0.867791 18.386 0.676389 18.2362 0.514235C18.0864 0.352081 17.9046 0.222685 17.7024 0.134186C17.5001 0.0456868 17.2818 0 17.061 0C16.8402 0 16.6219 0.0456868 16.4196 0.134186C16.2174 0.222685 16.0356 0.352081 15.8858 0.514235C15.736 0.676389 15.6213 0.867791 15.5491 1.0764C15.4769 1.28501 15.4486 1.50632 15.466 1.72639V3.03839H9.134V1.72639C9.10221 1.32518 8.92038 0.950692 8.62477 0.677576C8.32915 0.404461 7.94147 0.252785 7.539 0.252785C7.13653 0.252785 6.74885 0.404461 6.45324 0.677576C6.15762 0.950692 5.97579 1.32518 5.944 1.72639V3.03839H2.732C2.00721 3.04051 1.31279 3.32971 0.800755 3.84268C0.28872 4.35565 0.000790477 5.0506 0 5.77539V22.2414C0.00105807 22.967 0.28976 23.6625 0.802818 24.1756C1.31588 24.6886 2.01143 24.9773 2.737 24.9784H21.868C22.5936 24.9773 23.2891 24.6886 23.8022 24.1756C24.3152 23.6625 24.6039 22.967 24.605 22.2414V5.77539C24.6042 5.04974 24.3156 4.35403 23.8025 3.84092C23.2894 3.3278 22.5937 3.03919 21.868 3.03839ZM22.478 22.2384C22.478 22.4003 22.4138 22.5555 22.2994 22.6701C22.185 22.7846 22.0299 22.8491 21.868 22.8494H2.732C2.57013 22.8491 2.41497 22.7846 2.3006 22.6701C2.18624 22.5555 2.122 22.4003 2.122 22.2384V5.77539C2.122 5.61352 2.18624 5.45826 2.3006 5.3437C2.41497 5.22915 2.57013 5.16466 2.732 5.16439H5.944V6.47539C5.944 6.89841 6.11204 7.30411 6.41116 7.60323C6.71029 7.90235 7.11598 8.07039 7.539 8.07039C7.96202 8.07039 8.36771 7.90235 8.66683 7.60323C8.96596 7.30411 9.134 6.89841 9.134 6.47539V5.16439H15.466V6.47539C15.466 6.89841 15.634 7.30411 15.9332 7.60323C16.2323 7.90235 16.638 8.07039 17.061 8.07039C17.484 8.07039 17.8897 7.90235 18.1888 7.60323C18.488 7.30411 18.656 6.89841 18.656 6.47539V5.16439H21.868C22.0299 5.16466 22.185 5.22915 22.2994 5.3437C22.4138 5.45826 22.478 5.61352 22.478 5.77539V22.2384Z" fill="#A3A3A3"/>
</svg>
