<svg width="15" height="10" viewBox="0 0 15 10" fill="none" xmlns="http://www.w3.org/2000/svg">
<path d="M6.288 9.6054C6.14837 9.60549 6.01009 9.57807 5.88106 9.52471C5.75203 9.47135 5.63478 9.39309 5.536 9.2944L0.905002 4.6624C0.727346 4.45945 0.633483 4.19655 0.642431 3.92698C0.651379 3.6574 0.762469 3.40131 0.953192 3.21059C1.14391 3.01987 1.40001 2.90878 1.66958 2.89983C1.93916 2.89088 2.20205 2.98474 2.405 3.1624L6.285 7.0424L12.455 0.872398C12.5509 0.762893 12.6682 0.674236 12.7997 0.611922C12.9312 0.549609 13.0741 0.514965 13.2196 0.510137C13.365 0.505309 13.5099 0.530401 13.6453 0.583855C13.7806 0.63731 13.9036 0.71799 14.0065 0.820898C14.1094 0.923805 14.1901 1.04675 14.2435 1.18211C14.297 1.31747 14.3221 1.46237 14.3173 1.60782C14.3124 1.75327 14.2778 1.89618 14.2155 2.0277C14.1532 2.15922 14.0645 2.27654 13.955 2.3724L7.033 9.2944C6.83547 9.49237 6.56766 9.60417 6.288 9.6054Z" fill="#A3A3A3"/>
</svg>
