<svg width="28" height="28" viewBox="0 0 28 28" fill="none" xmlns="http://www.w3.org/2000/svg">
<path d="M24.059 3.465H20.585V2.04601C20.5504 1.61217 20.3535 1.20731 20.0338 0.912071C19.714 0.616834 19.2948 0.452881 18.8595 0.452881C18.4243 0.452881 18.0051 0.616834 17.6853 0.912071C17.3655 1.20731 17.1687 1.61217 17.134 2.04601V3.465H10.285V2.04601C10.2504 1.61217 10.0535 1.20731 9.73377 0.912071C9.414 0.616834 8.99475 0.452881 8.55953 0.452881C8.12431 0.452881 7.70505 0.616834 7.38528 0.912071C7.06551 1.20731 6.8687 1.61217 6.83403 2.04601V3.465H3.36003C2.57609 3.46765 1.8251 3.78065 1.27133 4.33554C0.717562 4.89044 0.406082 5.64206 0.405029 6.426V24.238C0.406353 25.0227 0.718806 25.7749 1.27387 26.3296C1.82894 26.8843 2.58131 27.1962 3.36603 27.197H24.06C24.8447 27.1962 25.5971 26.8843 26.1522 26.3296C26.7073 25.7749 27.0197 25.0227 27.021 24.238V6.426C27.02 5.64085 26.7075 4.88817 26.1523 4.33308C25.597 3.77798 24.8442 3.4658 24.059 3.465ZM24.719 24.233C24.7188 24.408 24.6491 24.5757 24.5254 24.6994C24.4017 24.8231 24.234 24.8927 24.059 24.893H3.35903C3.18407 24.8927 3.01635 24.8231 2.89263 24.6994C2.76891 24.5757 2.69929 24.408 2.69903 24.233V6.426C2.69903 6.25087 2.76854 6.08289 2.89228 5.95896C3.01603 5.83503 3.1839 5.76527 3.35903 5.76501H6.83503V7.18401C6.8697 7.61784 7.06651 8.0227 7.38628 8.31794C7.70605 8.61318 8.12531 8.77712 8.56053 8.77712C8.99575 8.77712 9.415 8.61318 9.73477 8.31794C10.0545 8.0227 10.2514 7.61784 10.286 7.18401V5.76501H17.135V7.18401C17.116 7.42218 17.1465 7.66172 17.2246 7.88754C17.3026 8.11336 17.4266 8.32057 17.5887 8.49612C17.7508 8.67168 17.9475 8.81178 18.1664 8.9076C18.3852 9.00342 18.6216 9.05289 18.8605 9.05289C19.0995 9.05289 19.3358 9.00342 19.5547 8.9076C19.7736 8.81178 19.9703 8.67168 20.1323 8.49612C20.2944 8.32057 20.4184 8.11336 20.4965 7.88754C20.5746 7.66172 20.6051 7.42218 20.586 7.18401V5.76501H24.06C24.2352 5.76527 24.403 5.83503 24.5268 5.95896C24.6505 6.08289 24.72 6.25087 24.72 6.426L24.719 24.233Z" fill="#AAAAAA"/>
</svg>
