<svg id="_x33_0" enable-background="new 0 0 64 64" height="512" viewBox="0 0 64 64" width="512" xmlns="http://www.w3.org/2000/svg"><g><path d="m19 31c-7.72 0-14 6.28-14 14s6.28 14 14 14 14-6.28 14-14-6.28-14-14-14zm0 26c-6.617 0-12-5.383-12-12s5.383-12 12-12 12 5.383 12 12-5.383 12-12 12z"/><path d="m19 37c-4.411 0-8 3.589-8 8s3.589 8 8 8 8-3.589 8-8-3.589-8-8-8zm0 14c-3.309 0-6-2.691-6-6s2.691-6 6-6 6 2.691 6 6-2.691 6-6 6z"/><path d="m62 46.586-2.586-2.586 1.586-1.586c.645-.645 1-1.502 1-2.414s-.355-1.77-1-2.414l-1.586-1.586.586-.586c.645-.645 1-1.502 1-2.414s-.355-1.77-1-2.414l-2.586-2.586c-1.289-1.29-3.539-1.29-4.828 0l-4.586 4.586-16.586-16.586 4.586-4.586c.645-.644 1-1.502 1-2.414s-.355-1.77-1-2.414l-2.586-2.586c-1.289-1.29-3.539-1.29-4.828 0l-.586.586-1.586-1.586c-1.289-1.29-3.539-1.29-4.828 0l-1.586 1.586-2.586-2.586c-1.289-1.29-3.539-1.29-4.828 0l-4.586 4.586c-.645.644-1 1.502-1 2.414s.355 1.77 1 2.414l2.586 2.586-1.586 1.586c-.645.644-1 1.502-1 2.414s.355 1.77 1 2.414l1.586 1.586-.586.586c-.645.644-1 1.502-1 2.414s.355 1.77 1 2.414l1.327 1.327c-6.093 2.888-10.327 9.08-10.327 16.259 0 9.925 8.075 18 18 18 7.179 0 13.371-4.234 16.259-10.327l1.327 1.327c.645.645 1.502 1 2.414 1s1.77-.355 2.414-1l.586-.586 1.586 1.586c.645.645 1.502 1 2.414 1s1.77-.355 2.414-1l1.586-1.586 2.586 2.586c.645.645 1.502 1 2.414 1s1.77-.355 2.414-1l4.586-4.586c.645-.645 1-1.502 1-2.414s-.355-1.77-1-2.414zm-15.414-12.586-6.586 6.586-7.979-7.979c-.204-.215-.413-.423-.628-.628l-7.979-7.979 6.586-6.586zm-9.654 9.654c-.105-1.41-.359-2.778-.771-4.079l2.425 2.425zm-14.932-18.24 2.425 2.425c-1.302-.412-2.67-.666-4.079-.771zm-12.586-15.414c-.263-.263-.414-.628-.414-1s.151-.737.414-1l4.586-4.586c.526-.526 1.474-.526 2 0l2.586 2.586-6.586 6.586zm1 9c-.263-.263-.414-.628-.414-1s.151-.737.414-1l12.586-12.586c.526-.526 1.474-.526 2 0l1.586 1.586-14.586 14.586zm1 7c-.263-.263-.414-.628-.414-1s.151-.737.414-1l18.586-18.586c.526-.526 1.474-.526 2 0l2.586 2.586c.263.263.414.628.414 1s-.151.737-.414 1l-17.076 17.075c-1.446.119-2.841.408-4.171.85zm7.586 35c-8.822 0-16-7.178-16-16s7.178-16 16-16c4.247 0 8.103 1.675 10.97 4.384l.646.646c2.709 2.867 4.384 6.723 4.384 10.97 0 8.822-7.178 16-16 16zm19-8.414-1.926-1.926c.442-1.329.731-2.725.85-4.171l17.076-17.075c.526-.526 1.474-.526 2 0l2.586 2.586c.263.263.414.628.414 1s-.151.737-.414 1l-18.586 18.586c-.526.526-1.474.526-2 0zm9 1c-.526.526-1.474.526-2 0l-1.586-1.586 14.586-14.586 1.586 1.586c.263.263.414.628.414 1s-.151.737-.414 1zm13.586-3.586-4.586 4.586c-.526.526-1.474.526-2 0l-2.586-2.586 6.586-6.586 2.586 2.586c.263.263.414.628.414 1s-.151.737-.414 1z"/></g></svg>