<svg width="21" height="12" viewBox="0 0 21 12" fill="none" xmlns="http://www.w3.org/2000/svg">
<path d="M18.7299 0.811067L10.5209 8.79107L2.31194 0.811067C2.11152 0.621239 1.84598 0.515442 1.56994 0.515442C1.29389 0.515442 1.02835 0.621239 0.827935 0.811067C0.731112 0.903082 0.654016 1.01383 0.601334 1.13657C0.548651 1.25932 0.521484 1.39149 0.521484 1.52507C0.521484 1.65864 0.548651 1.79082 0.601334 1.91356C0.654016 2.0363 0.731112 2.14705 0.827935 2.23907L9.77594 10.9391C9.97768 11.1286 10.2441 11.2341 10.5209 11.2341C10.7978 11.2341 11.0642 11.1286 11.2659 10.9391L20.2139 2.23907C20.3108 2.14705 20.3879 2.0363 20.4405 1.91356C20.4932 1.79082 20.5204 1.65864 20.5204 1.52507C20.5204 1.39149 20.4932 1.25932 20.4405 1.13657C20.3879 1.01383 20.3108 0.903082 20.2139 0.811067C20.0135 0.621239 19.748 0.515442 19.4719 0.515442C19.1959 0.515442 18.9303 0.621239 18.7299 0.811067Z" fill="#6633CC"/>
</svg>
