<svg width="14" height="13" viewBox="0 0 14 13" fill="none" xmlns="http://www.w3.org/2000/svg">
<path d="M6.94671 0.697754C5.73827 0.697754 4.55697 1.05611 3.5522 1.7275C2.54744 2.39889 1.76433 3.35316 1.30192 4.46963C0.839504 5.5861 0.718561 6.81463 0.954377 7.99984C1.19019 9.18504 1.77218 10.2737 2.62674 11.1281C3.48129 11.9826 4.57003 12.5644 5.75527 12.8001C6.94051 13.0357 8.16902 12.9146 9.28542 12.452C10.4018 11.9895 11.356 11.2062 12.0272 10.2014C12.6985 9.1965 13.0567 8.01515 13.0565 6.80671C13.0563 5.18643 12.4125 3.6326 11.2667 2.48697C10.1209 1.34135 8.56699 0.697754 6.94671 0.697754ZM10.9953 5.71276L9.31141 7.35411C9.27622 7.38949 9.25011 7.43286 9.23531 7.48052C9.22051 7.52818 9.21746 7.57871 9.22641 7.62781L9.62421 9.94491C9.63401 10.0018 9.62769 10.0603 9.60596 10.1138C9.58424 10.1673 9.54798 10.2137 9.50128 10.2476C9.45458 10.2816 9.39932 10.3018 9.34173 10.306C9.28414 10.3102 9.22653 10.2982 9.17541 10.2713L7.09462 9.17736C7.05036 9.15392 7.00104 9.14166 6.95096 9.14166C6.90089 9.14166 6.85157 9.15392 6.80731 9.17736L4.72652 10.2713C4.6754 10.2982 4.61779 10.3102 4.5602 10.306C4.50261 10.3018 4.44735 10.2816 4.40065 10.2476C4.35395 10.2137 4.31769 10.1673 4.29597 10.1138C4.27424 10.0603 4.26792 10.0018 4.27772 9.94491L4.67552 7.62781C4.68447 7.57871 4.68142 7.52818 4.66662 7.48052C4.65182 7.43286 4.62571 7.38949 4.59052 7.35411L2.90667 5.71361C2.86557 5.67338 2.8365 5.62249 2.82271 5.56666C2.80893 5.51082 2.81098 5.45225 2.82864 5.39752C2.84629 5.34278 2.87885 5.29405 2.92267 5.2568C2.96648 5.21954 3.01981 5.19524 3.07667 5.18661L5.40311 4.84661C5.4528 4.83924 5.49995 4.81992 5.54051 4.79031C5.58108 4.7607 5.61385 4.72168 5.63602 4.67661L6.67642 2.5686C6.70181 2.51676 6.74124 2.47307 6.79022 2.44252C6.83921 2.41197 6.89578 2.39577 6.95352 2.39577C7.01125 2.39577 7.06782 2.41197 7.11681 2.44252C7.16579 2.47307 7.20522 2.51676 7.23061 2.5686L8.27101 4.67661C8.29318 4.72168 8.32595 4.7607 8.36652 4.79031C8.40708 4.81992 8.45423 4.83924 8.50392 4.84661L10.8304 5.18661C10.8873 5.19566 10.9406 5.22045 10.9843 5.25819C11.0279 5.29593 11.0601 5.34511 11.0772 5.40019C11.0944 5.45526 11.0958 5.51403 11.0813 5.56986C11.0668 5.62569 11.037 5.67636 10.9953 5.71616V5.71276Z" fill="#A3A3A3"/>
</svg>
