<svg width="20" height="26" viewBox="0 0 20 26" fill="none" xmlns="http://www.w3.org/2000/svg">
<path d="M19.8499 21.6503L16.7049 14.4661C17.7867 13.1858 18.4801 11.623 18.7032 9.96184C18.9263 8.30063 18.6699 6.61027 17.9642 5.08996C17.2585 3.56965 16.1329 2.28275 14.72 1.38095C13.3072 0.479139 11.666 0 9.98989 0C8.31377 0 6.67258 0.479139 5.25974 1.38095C3.8469 2.28275 2.72129 3.56965 2.01558 5.08996C1.30987 6.61027 1.05346 8.30063 1.27658 9.96184C1.49969 11.623 2.19304 13.1858 3.27489 14.4661L0.0448883 21.6511C0.00417707 21.7439 -0.00922583 21.8464 0.00625143 21.9466C0.0217287 22.0467 0.0654443 22.1404 0.132272 22.2166C0.199099 22.2928 0.286267 22.3484 0.383552 22.3768C0.480838 22.4052 0.584208 22.4053 0.681538 22.377L4.36289 21.272L6.00339 24.7494C6.04672 24.8417 6.1157 24.9197 6.2021 24.974C6.28851 25.0283 6.38871 25.0566 6.49074 25.0555C6.59278 25.0544 6.69235 25.024 6.7776 24.9679C6.86284 24.9119 6.93016 24.8324 6.97154 24.7392L9.98139 18.0386L12.9215 24.7392C12.9628 24.8325 13.0301 24.912 13.1153 24.9681C13.2005 25.0243 13.3 25.0548 13.4021 25.0559C13.5041 25.0571 13.6043 25.0289 13.6908 24.9747C13.7772 24.9205 13.8463 24.8426 13.8897 24.7502L15.5302 21.2729L19.2115 22.3779C19.3092 22.4068 19.4131 22.4071 19.5109 22.3789C19.6087 22.3506 19.6964 22.2949 19.7636 22.2184C19.8307 22.1418 19.8745 22.0476 19.8898 21.9469C19.9051 21.8463 19.8913 21.7433 19.8499 21.6503ZM2.49884 8.80676C2.49473 6.91226 3.20851 5.08654 4.49648 3.69719C5.78445 2.30784 7.55096 1.45802 9.44035 1.31885C11.3297 1.17967 13.2017 1.76147 14.6793 2.94711C16.157 4.13274 17.1306 5.83416 17.4041 7.70882C17.6777 9.58348 17.2308 11.4922 16.1535 13.0506C15.0763 14.609 13.4486 15.7014 11.5982 16.1079C9.74782 16.5144 7.81214 16.2048 6.18088 15.2414C4.54962 14.278 3.34392 12.7323 2.80654 10.9156C2.60406 10.2309 2.50045 9.52078 2.49884 8.80676Z" fill="#A3A3A3"/>
</svg>
