<svg width="16" height="4" viewBox="0 0 16 4" fill="none" xmlns="http://www.w3.org/2000/svg">
<path d="M2.058 3.286C2.85 3.286 3.51 2.67 3.51 1.768C3.51 0.866 2.85 0.206 2.058 0.206C1.266 0.206 0.606 0.866 0.606 1.768C0.606 2.67 1.266 3.286 2.058 3.286ZM8.18105 3.286C8.97305 3.286 9.63305 2.67 9.63305 1.768C9.63305 0.866 8.97305 0.206 8.18105 0.206C7.38905 0.206 6.72905 0.866 6.72905 1.768C6.72905 2.67 7.38905 3.286 8.18105 3.286ZM14.3041 3.286C15.0961 3.286 15.7561 2.67 15.7561 1.768C15.7561 0.866 15.0961 0.206 14.3041 0.206C13.5121 0.206 12.8521 0.866 12.8521 1.768C12.8521 2.67 13.5121 3.286 14.3041 3.286Z" fill="#AAAAAA"/>
</svg>
