<svg width="50" height="50" viewBox="0 0 15 15" fill="none" xmlns="http://www.w3.org/2000/svg">
    <path d="M7.585 3.188C7.568 3.239 7.551 3.307 7.5 3.307C7.449 3.307 7.432 3.239 7.415 3.188C6.905 1.301 5.494 0.467999 3.896 0.467999C1.958 0.467999 0.343 2.253 0.343 4.565C0.343 7.064 2.366 8.883 3.641 10.107C5.188 11.586 6.837 13.609 7.466 14.629C7.483 14.663 7.517 14.663 7.534 14.629C8.163 13.609 9.812 11.586 11.359 10.107C12.634 8.883 14.657 7.081 14.657 4.565C14.657 2.253 13.042 0.467999 11.104 0.467999C9.506 0.467999 8.078 1.301 7.585 3.188Z" fill="#DDDDDD" />
</svg>
